<svg version="1.1" viewBox="0.0 0.0 960.0 540.0" fill="none" stroke="none" stroke-linecap="square" stroke-miterlimit="10" xmlns:xlink="http://www.w3.org/1999/xlink" xmlns="http://www.w3.org/2000/svg"><clipPath id="g9a4361903c_0_0.0"><path d="m0 0l960.0 0l0 540.0l-960.0 0l0 -540.0z" clip-rule="nonzero"/></clipPath><g clip-path="url(#g9a4361903c_0_0.0)"><path fill="#ffffff" d="m0 0l960.0 0l0 540.0l-960.0 0z" fill-rule="evenodd"/><path fill="#000000" fill-opacity="0.0" d="m356.33743 226.44882l0 0c0 -68.37024 55.42505 -123.79528 123.79529 -123.79528l0 0c32.83255 0 64.32034 13.042679 87.53647 36.258797c23.216125 23.216125 36.25879 54.703934 36.25879 87.53648l0 0c0 68.37024 -55.42505 123.79526 -123.79526 123.79526l0 0c-68.37024 0 -123.79529 -55.42502 -123.79529 -123.79526z" fill-rule="evenodd"/><path fill="#000000" fill-opacity="0.0" d="m-7.874016E-7 382.40683l960.0 0l0 48.188965l-960.0 0z" fill-rule="evenodd"/><path fill="#595959" d="m250.97038 386.99756q2.09375 0 3.828125 1.140625q1.7343903 1.125 2.3750153 3.5625l-0.484375 0.328125l0.1875 -0.703125q0.484375 -1.234375 1.6875 -2.203125q1.21875 -0.96875 2.71875 -1.546875q1.515625 -0.578125 2.9375 -0.578125q2.25 0 3.703125 0.96875q1.453125 0.96875 2.140625 2.59375q0.6875 1.625 0.6875 3.671875l0 10.859375q0 0.296875 -0.203125 0.53125q-0.203125 0.21875 -0.53125 0.21875q-0.34375 0 -0.546875 -0.21875q-0.203125 -0.234375 -0.203125 -0.53125l0 -10.703125q0 -1.65625 -0.546875 -3.015625q-0.546875 -1.359375 -1.6875 -2.15625q-1.125 -0.8125 -2.953125 -0.8125q-1.609375 0 -3.140625 0.8125q-1.53125 0.796875 -2.53125 2.15625q-0.984375 1.359375 -0.984375 3.015625l0 10.703125q0 0.296875 -0.203125 0.53125q-0.203125 0.21875 -0.53125 0.21875q-0.34375 0 -0.546875 -0.21875q-0.20314026 -0.234375 -0.20314026 -0.53125l0 -10.890625q0 -1.609375 -0.515625 -2.90625q-0.5 -1.3125 -1.578125 -2.09375q-1.078125 -0.796875 -2.875 -0.796875q-1.5625 0 -3.046875 0.796875q-1.46875 0.78125 -2.4375 2.09375q-0.96875 1.296875 -0.96875 2.90625l0 10.890625q0 0.296875 -0.234375 0.53125q-0.21875 0.21875 -0.515625 0.21875q-0.328125 0 -0.546875 -0.21875q-0.203125 -0.234375 -0.203125 -0.53125l0 -17.125q0 -0.296875 0.21875 -0.515625q0.234375 -0.234375 0.53125 -0.234375q0.34375 0 0.546875 0.234375q0.203125 0.21875 0.203125 0.515625l0 4.0625l-1.125 1.90625q0 -1.3125 0.625 -2.53125q0.640625 -1.234375 1.703125 -2.21875q1.078125 -1.0 2.4375 -1.59375q1.359375 -0.59375 2.8125 -0.59375zm41.24385 0.21875q0.34375 0 0.546875 0.234375q0.203125 0.21875 0.203125 0.515625l0 17.125q0 0.296875 -0.21875 0.53125q-0.21875 0.21875 -0.53125 0.21875q-0.328125 0 -0.53125 -0.21875q-0.203125 -0.234375 -0.203125 -0.53125l0 -5.296875l0.59375 -0.484375q0 1.1875 -0.609375 2.421875q-0.59375 1.234375 -1.640625 2.25q-1.03125 1.0 -2.453125 1.625q-1.421875 0.609375 -3.0625 0.609375q-2.5 0 -4.46875 -1.296875q-1.953125 -1.3125 -3.078125 -3.546875q-1.109375 -2.25 -1.109375 -5.046875q0 -2.84375 1.125 -5.015625q1.140625 -2.1875 3.09375 -3.4375q1.96875 -1.25 4.4375 -1.25q1.609375 0 3.015625 0.578125q1.421875 0.578125 2.484375 1.625q1.0625 1.046875 1.65625 2.453125q0.609375 1.390625 0.609375 3.03125l-0.59375 -0.9375l0 -5.40625q0 -0.296875 0.203125 -0.515625q0.203125 -0.234375 0.53125 -0.234375zm-7.828125 17.578125q2.078125 0 3.71875 -1.09375q1.65625 -1.109375 2.578125 -3.03125q0.9375 -1.921875 0.9375 -4.34375q0 -2.3125 -0.9375 -4.203125q-0.921875 -1.890625 -2.578125 -2.984375q-1.640625 -1.109375 -3.71875 -1.109375q-2.0625 0 -3.703125 1.078125q-1.640625 1.0625 -2.59375 2.9375q-0.953125 1.859375 -0.953125 4.28125q0 2.421875 0.9375 4.34375q0.9375 1.921875 2.578125 3.03125q1.640625 1.09375 3.734375 1.09375zm15.710327 1.046875q-0.328125 0 -0.546875 -0.21875q-0.203125 -0.234375 -0.203125 -0.53125l0 -26.125q0 -0.296875 0.203125 -0.515625q0.21875 -0.234375 0.546875 -0.234375q0.34375 0 0.546875 0.234375q0.203125 0.21875 0.203125 0.515625l0 26.125q0 0.296875 -0.203125 0.53125q-0.203125 0.21875 -0.546875 0.21875zm12.953125 -18.84375q0.296875 0 0.515625 0.21875q0.234375 0.21875 0.234375 0.5625q0 0.328125 -0.265625 0.5625l-12.953125 10.78125l-0.078125 -1.796875l12.0625 -10.109375q0.21875 -0.21875 0.484375 -0.21875zm0.21875 18.84375q-0.296875 0 -0.5625 -0.265625l-9.03125 -9.625l1.125 -0.96875l9.0 9.546875q0.21875 0.234375 0.21875 0.5625q0 0.375 -0.296875 0.5625q-0.296875 0.1875 -0.453125 0.1875zm12.879272 0.375q-2.796875 0 -4.953125 -1.1875q-2.140625 -1.203125 -3.375 -3.390625q-1.21875 -2.1875 -1.21875 -5.125q0 -3.140625 1.203125 -5.34375q1.21875 -2.203125 3.140625 -3.375q1.921875 -1.171875 4.09375 -1.171875q1.5625 0 3.046875 0.5q1.5 0.5 2.671875 1.5625q1.1875 1.0625 1.90625 2.65625q0.734375 1.578125 0.8125 3.78125q0 0.296875 -0.234375 0.546875q-0.21875 0.25 -0.515625 0.25l-15.234375 0l-0.21875 -1.421875l15.03125 0l-0.359375 0.328125l0 -0.671875q-0.1875 -1.96875 -1.265625 -3.3125q-1.0625 -1.34375 -2.5625 -2.03125q-1.484375 -0.703125 -3.078125 -0.703125q-1.125 0 -2.359375 0.515625q-1.234375 0.5 -2.28125 1.53125q-1.046875 1.015625 -1.703125 2.59375q-0.640625 1.5625 -0.640625 3.65625q0 2.265625 0.90625 4.171875q0.921875 1.90625 2.734375 3.0625q1.8125 1.15625 4.453125 1.15625q1.265625 0 2.390625 -0.421875q1.125 -0.4375 2.015625 -1.140625q0.890625 -0.71875 1.453125 -1.53125q0.296875 -0.34375 0.640625 -0.34375q0.265625 0 0.453125 0.21875q0.1875 0.203125 0.1875 0.453125q0 0.265625 -0.15625 0.453125q-1.15625 1.5 -2.96875 2.625q-1.8125 1.109375 -4.015625 1.109375zm23.784515 -1.125q0 0.296875 -0.234375 0.53125q-0.21875 0.21875 -0.515625 0.21875q-0.328125 0 -0.546875 -0.21875q-0.203125 -0.234375 -0.203125 -0.53125l0 -17.734375q0 -0.296875 0.21875 -0.515625q0.234375 -0.21875 0.53125 -0.21875q0.34375 0 0.546875 0.21875q0.203125 0.21875 0.203125 0.515625l0 17.734375zm-0.421875 -21.046875q-0.59375 0 -0.953125 -0.328125q-0.359375 -0.34375 -0.359375 -0.875l0 -0.296875q0 -0.515625 0.375 -0.84375q0.375 -0.34375 0.96875 -0.34375q0.53125 0 0.875 0.34375q0.359375 0.328125 0.359375 0.84375l0 0.296875q0 0.53125 -0.359375 0.875q-0.34375 0.328125 -0.90625 0.328125zm15.095856 2.578125q2.34375 0 3.8125 0.9375q1.484375 0.921875 2.171875 2.53125q0.6875 1.609375 0.6875 3.578125l0 11.421875q0 0.296875 -0.21875 0.53125q-0.21875 0.21875 -0.53125 0.21875q-0.328125 0 -0.53125 -0.21875q-0.203125 -0.234375 -0.203125 -0.53125l0 -11.265625q0 -1.609375 -0.546875 -2.90625q-0.546875 -1.3125 -1.71875 -2.09375q-1.171875 -0.796875 -3.078125 -0.796875q-1.640625 0 -3.21875 0.796875q-1.5625 0.78125 -2.59375 2.09375q-1.015625 1.296875 -1.015625 2.90625l0 11.265625q0 0.296875 -0.234375 0.53125q-0.21875 0.21875 -0.515625 0.21875q-0.328125 0 -0.546875 -0.21875q-0.203125 -0.234375 -0.203125 -0.53125l0 -17.125q0 -0.296875 0.21875 -0.515625q0.234375 -0.234375 0.53125 -0.234375q0.34375 0 0.546875 0.234375q0.203125 0.21875 0.203125 0.515625l0 3.65625l-0.9375 1.78125q0 -1.34375 0.703125 -2.5625q0.71875 -1.234375 1.875 -2.1875q1.15625 -0.953125 2.546875 -1.484375q1.40625 -0.546875 2.796875 -0.546875zm11.148651 0.4375l8.671875 0q0.296875 0 0.5 0.234375q0.203125 0.21875 0.203125 0.484375q0 0.296875 -0.203125 0.5q-0.203125 0.203125 -0.5 0.203125l-8.671875 0q-0.25 0 -0.484375 -0.21875q-0.21875 -0.234375 -0.21875 -0.484375q0 -0.296875 0.21875 -0.5q0.234375 -0.21875 0.484375 -0.21875zm3.8125 -5.484375q0.34375 0 0.546875 0.234375q0.203125 0.21875 0.203125 0.515625l0 19.453125q0 1.21875 0.3125 1.796875q0.3125 0.578125 0.796875 0.75q0.5 0.171875 0.9375 0.171875q0.265625 0 0.453125 -0.078125q0.1875 -0.078125 0.453125 -0.078125q0.25 0 0.4375 0.21875q0.1875 0.203125 0.1875 0.453125q0 0.34375 -0.4375 0.59375q-0.421875 0.234375 -1.046875 0.234375q-0.234375 0 -0.8125 -0.015625q-0.578125 -0.015625 -1.234375 -0.328125q-0.640625 -0.328125 -1.09375 -1.171875q-0.453125 -0.84375 -0.453125 -2.484375l0 -19.515625q0 -0.296875 0.21875 -0.515625q0.234375 -0.234375 0.53125 -0.234375zm17.76532 24.640625q-2.796875 0 -4.953125 -1.1875q-2.140625 -1.203125 -3.375 -3.390625q-1.21875 -2.1875 -1.21875 -5.125q0 -3.140625 1.203125 -5.34375q1.21875 -2.203125 3.140625 -3.375q1.921875 -1.171875 4.09375 -1.171875q1.5625 0 3.046875 0.5q1.5 0.5 2.671875 1.5625q1.1875 1.0625 1.90625 2.65625q0.734375 1.578125 0.8125 3.78125q0 0.296875 -0.234375 0.546875q-0.21875 0.25 -0.515625 0.25l-15.234375 0l-0.21875 -1.421875l15.03125 0l-0.359375 0.328125l0 -0.671875q-0.1875 -1.96875 -1.265625 -3.3125q-1.0625 -1.34375 -2.5625 -2.03125q-1.484375 -0.703125 -3.078125 -0.703125q-1.125 0 -2.359375 0.515625q-1.234375 0.5 -2.28125 1.53125q-1.046875 1.015625 -1.703125 2.59375q-0.640625 1.5625 -0.640625 3.65625q0 2.265625 0.90625 4.171875q0.921875 1.90625 2.734375 3.0625q1.8125 1.15625 4.453125 1.15625q1.265625 0 2.390625 -0.421875q1.125 -0.4375 2.015625 -1.140625q0.890625 -0.71875 1.453125 -1.53125q0.296875 -0.34375 0.640625 -0.34375q0.265625 0 0.453125 0.21875q0.1875 0.203125 0.1875 0.453125q0 0.265625 -0.15625 0.453125q-1.15625 1.5 -2.96875 2.625q-1.8125 1.109375 -4.015625 1.109375zm13.893372 -1.125q0 0.296875 -0.234375 0.53125q-0.21875 0.21875 -0.515625 0.21875q-0.328125 0 -0.546875 -0.21875q-0.203125 -0.234375 -0.203125 -0.53125l0 -26.125q0 -0.296875 0.21875 -0.515625q0.234375 -0.234375 0.53125 -0.234375q0.34375 0 0.546875 0.234375q0.203125 0.21875 0.203125 0.515625l0 26.125zm8.062897 0q0 0.296875 -0.234375 0.53125q-0.21875 0.21875 -0.515625 0.21875q-0.328125 0 -0.546875 -0.21875q-0.203125 -0.234375 -0.203125 -0.53125l0 -26.125q0 -0.296875 0.21875 -0.515625q0.234375 -0.234375 0.53125 -0.234375q0.34375 0 0.546875 0.234375q0.203125 0.21875 0.203125 0.515625l0 26.125zm7.8753967 0q0 0.296875 -0.234375 0.53125q-0.21875 0.21875 -0.515625 0.21875q-0.328125 0 -0.546875 -0.21875q-0.203125 -0.234375 -0.203125 -0.53125l0 -17.734375q0 -0.296875 0.21875 -0.515625q0.234375 -0.21875 0.53125 -0.21875q0.34375 0 0.546875 0.21875q0.203125 0.21875 0.203125 0.515625l0 17.734375zm-0.421875 -21.046875q-0.59375 0 -0.953125 -0.328125q-0.359375 -0.34375 -0.359375 -0.875l0 -0.296875q0 -0.515625 0.375 -0.84375q0.375 -0.34375 0.96875 -0.34375q0.53125 0 0.875 0.34375q0.359375 0.328125 0.359375 0.84375l0 0.296875q0 0.53125 -0.359375 0.875q-0.34375 0.328125 -0.90625 0.328125zm14.345856 2.578125q1.671875 0 3.125 0.59375q1.46875 0.59375 2.5625 1.5625q1.109375 0.96875 1.71875 2.09375q0.609375 1.125 0.609375 2.203125l-0.484375 -1.375l0 -3.734375q0 -0.296875 0.203125 -0.515625q0.21875 -0.234375 0.546875 -0.234375q0.34375 0 0.546875 0.234375q0.203125 0.21875 0.203125 0.515625l0 16.046875q0 2.875 -1.1875 4.953125q-1.171875 2.09375 -3.21875 3.21875q-2.046875 1.125 -4.78125 1.125q-1.484375 0 -3.0 -0.390625q-1.515625 -0.390625 -2.53125 -1.0q-1.0 -0.59375 -1.0 -1.265625q0 -0.296875 0.171875 -0.484375q0.171875 -0.1875 0.46875 -0.1875q0.375 0 0.6875 0.40625q0.3125 0.421875 1.140625 0.75q0.328125 0.109375 0.90625 0.296875q0.578125 0.1875 1.40625 0.3125q0.828125 0.140625 1.828125 0.140625q3.546875 0 5.578125 -2.1875q2.03125 -2.171875 2.03125 -5.6875l0 -3.703125l0.375 0.046875q-0.4375 1.609375 -1.296875 2.734375q-0.859375 1.109375 -1.96875 1.796875q-1.09375 0.6875 -2.3125 1.0q-1.21875 0.328125 -2.328125 0.328125q-2.578125 0 -4.609375 -1.28125q-2.03125 -1.296875 -3.234375 -3.515625q-1.1875 -2.21875 -1.1875 -5.015625q0 -2.8125 1.1875 -5.03125q1.203125 -2.21875 3.234375 -3.484375q2.03125 -1.265625 4.609375 -1.265625zm0.078125 1.40625q-2.171875 0 -3.90625 1.09375q-1.734375 1.078125 -2.734375 2.96875q-0.984375 1.875 -0.984375 4.3125q0 2.375 0.984375 4.28125q1.0 1.90625 2.734375 3.015625q1.734375 1.09375 3.90625 1.09375q2.15625 0 3.875 -1.0625q1.71875 -1.0625 2.71875 -2.9375q1.015625 -1.890625 1.015625 -4.390625q0 -2.5 -1.015625 -4.390625q-1.0 -1.890625 -2.71875 -2.9375q-1.71875 -1.046875 -3.875 -1.046875zm22.647705 18.1875q-2.796875 0 -4.953125 -1.1875q-2.140625 -1.203125 -3.375 -3.390625q-1.21875 -2.1875 -1.21875 -5.125q0 -3.140625 1.203125 -5.34375q1.21875 -2.203125 3.140625 -3.375q1.921875 -1.171875 4.09375 -1.171875q1.5625 0 3.046875 0.5q1.5 0.5 2.671875 1.5625q1.1875 1.0625 1.90625 2.65625q0.734375 1.578125 0.8125 3.78125q0 0.296875 -0.234375 0.546875q-0.21875 0.25 -0.515625 0.25l-15.234375 0l-0.21875 -1.421875l15.03125 0l-0.359375 0.328125l0 -0.671875q-0.1875 -1.96875 -1.265625 -3.3125q-1.0625 -1.34375 -2.5625 -2.03125q-1.484375 -0.703125 -3.078125 -0.703125q-1.125 0 -2.359375 0.515625q-1.234375 0.5 -2.28125 1.53125q-1.046875 1.015625 -1.703125 2.59375q-0.640625 1.5625 -0.640625 3.65625q0 2.265625 0.90625 4.171875q0.921875 1.90625 2.734375 3.0625q1.8125 1.15625 4.453125 1.15625q1.265625 0 2.390625 -0.421875q1.125 -0.4375 2.015625 -1.140625q0.890625 -0.71875 1.453125 -1.53125q0.296875 -0.34375 0.640625 -0.34375q0.265625 0 0.453125 0.21875q0.1875 0.203125 0.1875 0.453125q0 0.265625 -0.15625 0.453125q-1.15625 1.5 -2.96875 2.625q-1.8125 1.109375 -4.015625 1.109375zm20.690247 -19.59375q2.34375 0 3.8125 0.9375q1.484375 0.921875 2.171875 2.53125q0.6875 1.609375 0.6875 3.578125l0 11.421875q0 0.296875 -0.21875 0.53125q-0.21875 0.21875 -0.53125 0.21875q-0.328125 0 -0.53125 -0.21875q-0.203125 -0.234375 -0.203125 -0.53125l0 -11.265625q0 -1.609375 -0.546875 -2.90625q-0.546875 -1.3125 -1.71875 -2.09375q-1.171875 -0.796875 -3.078125 -0.796875q-1.640625 0 -3.21875 0.796875q-1.5625 0.78125 -2.59375 2.09375q-1.015625 1.296875 -1.015625 2.90625l0 11.265625q0 0.296875 -0.234375 0.53125q-0.21875 0.21875 -0.515625 0.21875q-0.328125 0 -0.546875 -0.21875q-0.203125 -0.234375 -0.203125 -0.53125l0 -17.125q0 -0.296875 0.21875 -0.515625q0.234375 -0.234375 0.53125 -0.234375q0.34375 0 0.546875 0.234375q0.203125 0.21875 0.203125 0.515625l0 3.65625l-0.9375 1.78125q0 -1.34375 0.703125 -2.5625q0.71875 -1.234375 1.875 -2.1875q1.15625 -0.953125 2.546875 -1.484375q1.40625 -0.546875 2.796875 -0.546875zm11.148621 0.4375l8.671875 0q0.296875 0 0.5 0.234375q0.203125 0.21875 0.203125 0.484375q0 0.296875 -0.203125 0.5q-0.203125 0.203125 -0.5 0.203125l-8.671875 0q-0.25 0 -0.484375 -0.21875q-0.21875 -0.234375 -0.21875 -0.484375q0 -0.296875 0.21875 -0.5q0.234375 -0.21875 0.484375 -0.21875zm3.8125 -5.484375q0.34375 0 0.546875 0.234375q0.203125 0.21875 0.203125 0.515625l0 19.453125q0 1.21875 0.3125 1.796875q0.3125 0.578125 0.796875 0.75q0.5 0.171875 0.9375 0.171875q0.265625 0 0.453125 -0.078125q0.1875 -0.078125 0.453125 -0.078125q0.25 0 0.4375 0.21875q0.1875 0.203125 0.1875 0.453125q0 0.34375 -0.4375 0.59375q-0.421875 0.234375 -1.046875 0.234375q-0.234375 0 -0.8125 -0.015625q-0.578125 -0.015625 -1.234375 -0.328125q-0.640625 -0.328125 -1.09375 -1.171875q-0.453125 -0.84375 -0.453125 -2.484375l0 -19.515625q0 -0.296875 0.21875 -0.515625q0.234375 -0.234375 0.53125 -0.234375zm35.046265 5.640625q0.34375 0 0.546875 0.234375q0.203125 0.21875 0.203125 0.515625l0 17.125q0 0.296875 -0.21875 0.53125q-0.21875 0.21875 -0.53125 0.21875q-0.328125 0 -0.53125 -0.21875q-0.203125 -0.234375 -0.203125 -0.53125l0 -5.296875l0.59375 -0.484375q0 1.1875 -0.609375 2.421875q-0.59375 1.234375 -1.640625 2.25q-1.03125 1.0 -2.453125 1.625q-1.421875 0.609375 -3.0625 0.609375q-2.5 0 -4.46875 -1.296875q-1.953125 -1.3125 -3.078125 -3.546875q-1.109375 -2.25 -1.109375 -5.046875q0 -2.84375 1.125 -5.015625q1.140625 -2.1875 3.09375 -3.4375q1.96875 -1.25 4.4375 -1.25q1.609375 0 3.015625 0.578125q1.421875 0.578125 2.484375 1.625q1.0625 1.046875 1.65625 2.453125q0.609375 1.390625 0.609375 3.03125l-0.59375 -0.9375l0 -5.40625q0 -0.296875 0.203125 -0.515625q0.203125 -0.234375 0.53125 -0.234375zm-7.828125 17.578125q2.078125 0 3.71875 -1.09375q1.65625 -1.109375 2.578125 -3.03125q0.9375 -1.921875 0.9375 -4.34375q0 -2.3125 -0.9375 -4.203125q-0.921875 -1.890625 -2.578125 -2.984375q-1.640625 -1.109375 -3.71875 -1.109375q-2.0625 0 -3.703125 1.078125q-1.640625 1.0625 -2.59375 2.9375q-0.953125 1.859375 -0.953125 4.28125q0 2.421875 0.9375 4.34375q0.9375 1.921875 2.578125 3.03125q1.640625 1.09375 3.734375 1.09375zm23.444702 -17.796875q2.5 0 4.4375 1.234375q1.9375 1.21875 3.078125 3.375q1.140625 2.140625 1.140625 4.90625q0 2.71875 -1.140625 4.890625q-1.140625 2.15625 -3.109375 3.40625q-1.953125 1.25 -4.40625 1.25q-1.234375 0 -2.375 -0.34375q-1.140625 -0.359375 -2.109375 -1.015625q-0.96875 -0.65625 -1.78125 -1.625q-0.796875 -0.96875 -1.390625 -2.203125l0.484375 -0.515625l0 12.203125q0 0.296875 -0.203125 0.515625q-0.203125 0.234375 -0.546875 0.234375q-0.296875 0 -0.53125 -0.234375q-0.21875 -0.21875 -0.21875 -0.515625l0 -24.828125q0 -0.296875 0.203125 -0.515625q0.21875 -0.21875 0.546875 -0.21875q0.34375 0 0.546875 0.21875q0.203125 0.21875 0.203125 0.515625l0 4.78125l-0.484375 -0.265625q0.515625 -1.375 1.296875 -2.375q0.796875 -1.015625 1.796875 -1.640625q1.015625 -0.640625 2.171875 -0.9375q1.15625 -0.296875 2.390625 -0.296875zm-0.078125 1.40625q-2.125 0 -3.75 1.046875q-1.625 1.046875 -2.5625 2.859375q-0.9375 1.8125 -0.9375 4.203125q0 2.34375 0.9375 4.203125q0.9375 1.84375 2.5625 2.890625q1.625 1.046875 3.75 1.046875q2.09375 0 3.703125 -1.046875q1.625 -1.046875 2.578125 -2.890625q0.953125 -1.859375 0.953125 -4.203125q0 -2.359375 -0.953125 -4.1875q-0.953125 -1.828125 -2.578125 -2.875q-1.609375 -1.046875 -3.703125 -1.046875zm22.288452 -1.40625q2.5 0 4.4375 1.234375q1.9375 1.21875 3.078125 3.375q1.140625 2.140625 1.140625 4.90625q0 2.71875 -1.140625 4.890625q-1.140625 2.15625 -3.109375 3.40625q-1.953125 1.25 -4.40625 1.25q-1.234375 0 -2.375 -0.34375q-1.140625 -0.359375 -2.109375 -1.015625q-0.96875 -0.65625 -1.78125 -1.625q-0.796875 -0.96875 -1.390625 -2.203125l0.484375 -0.515625l0 12.203125q0 0.296875 -0.203125 0.515625q-0.203125 0.234375 -0.546875 0.234375q-0.296875 0 -0.53125 -0.234375q-0.21875 -0.21875 -0.21875 -0.515625l0 -24.828125q0 -0.296875 0.203125 -0.515625q0.21875 -0.21875 0.546875 -0.21875q0.34375 0 0.546875 0.21875q0.203125 0.21875 0.203125 0.515625l0 4.78125l-0.484375 -0.265625q0.515625 -1.375 1.296875 -2.375q0.796875 -1.015625 1.796875 -1.640625q1.015625 -0.640625 2.171875 -0.9375q1.15625 -0.296875 2.390625 -0.296875zm-0.078125 1.40625q-2.125 0 -3.75 1.046875q-1.625 1.046875 -2.5625 2.859375q-0.9375 1.8125 -0.9375 4.203125q0 2.34375 0.9375 4.203125q0.9375 1.84375 2.5625 2.890625q1.625 1.046875 3.75 1.046875q2.09375 0 3.703125 -1.046875q1.625 -1.046875 2.578125 -2.890625q0.953125 -1.859375 0.953125 -4.203125q0 -2.359375 -0.953125 -4.1875q-0.953125 -1.828125 -2.578125 -2.875q-1.609375 -1.046875 -3.703125 -1.046875zm15.304077 16.6875q0 0.296875 -0.234375 0.53125q-0.21875 0.21875 -0.515625 0.21875q-0.328125 0 -0.546875 -0.21875q-0.203125 -0.234375 -0.203125 -0.53125l0 -26.125q0 -0.296875 0.21875 -0.515625q0.234375 -0.234375 0.53125 -0.234375q0.34375 0 0.546875 0.234375q0.203125 0.21875 0.203125 0.515625l0 26.125zm7.875366 0q0 0.296875 -0.234375 0.53125q-0.21875 0.21875 -0.515625 0.21875q-0.328125 0 -0.546875 -0.21875q-0.203125 -0.234375 -0.203125 -0.53125l0 -17.734375q0 -0.296875 0.21875 -0.515625q0.234375 -0.21875 0.53125 -0.21875q0.34375 0 0.546875 0.21875q0.203125 0.21875 0.203125 0.515625l0 17.734375zm-0.421875 -21.046875q-0.59375 0 -0.953125 -0.328125q-0.359375 -0.34375 -0.359375 -0.875l0 -0.296875q0 -0.515625 0.375 -0.84375q0.375 -0.34375 0.96875 -0.34375q0.53125 0 0.875 0.34375q0.359375 0.328125 0.359375 0.84375l0 0.296875q0 0.53125 -0.359375 0.875q-0.34375 0.328125 -0.90625 0.328125zm14.720886 2.578125q1.671875 0 3.140625 0.375q1.484375 0.359375 2.390625 0.984375q0.921875 0.609375 0.921875 1.28125q0 0.265625 -0.203125 0.515625q-0.203125 0.234375 -0.5 0.234375q-0.421875 0 -0.671875 -0.21875q-0.234375 -0.234375 -0.5 -0.546875q-0.25 -0.3125 -0.8125 -0.578125q-0.515625 -0.265625 -1.46875 -0.453125q-0.953125 -0.1875 -2.34375 -0.1875q-2.15625 0 -3.953125 1.125q-1.796875 1.125 -2.859375 3.015625q-1.0625 1.875 -1.0625 4.234375q0 2.375 0.984375 4.28125q1.0 1.90625 2.765625 3.015625q1.78125 1.09375 4.125 1.09375q1.6875 0 2.5625 -0.3125q0.875 -0.328125 1.515625 -0.6875q0.78125 -0.453125 1.078125 -0.859375q0.296875 -0.421875 0.703125 -0.421875q0.296875 0 0.46875 0.1875q0.171875 0.1875 0.171875 0.484375q0 0.453125 -0.828125 1.1875q-0.8125 0.71875 -2.296875 1.28125q-1.46875 0.5625 -3.484375 0.5625q-2.71875 0 -4.8125 -1.28125q-2.09375 -1.296875 -3.265625 -3.515625q-1.171875 -2.21875 -1.171875 -5.015625q0 -2.625 1.171875 -4.84375q1.171875 -2.21875 3.28125 -3.578125q2.109375 -1.359375 4.953125 -1.359375zm26.305603 0.59375q0.34375 0 0.546875 0.234375q0.203125 0.21875 0.203125 0.515625l0 17.125q0 0.296875 -0.21875 0.53125q-0.21875 0.21875 -0.53125 0.21875q-0.328125 0 -0.53125 -0.21875q-0.203125 -0.234375 -0.203125 -0.53125l0 -5.296875l0.59375 -0.484375q0 1.1875 -0.609375 2.421875q-0.59375 1.234375 -1.640625 2.25q-1.03125 1.0 -2.453125 1.625q-1.421875 0.609375 -3.0625 0.609375q-2.5 0 -4.46875 -1.296875q-1.953125 -1.3125 -3.078125 -3.546875q-1.109375 -2.25 -1.109375 -5.046875q0 -2.84375 1.125 -5.015625q1.140625 -2.1875 3.09375 -3.4375q1.96875 -1.25 4.4375 -1.25q1.609375 0 3.015625 0.578125q1.421875 0.578125 2.484375 1.625q1.0625 1.046875 1.65625 2.453125q0.609375 1.390625 0.609375 3.03125l-0.59375 -0.9375l0 -5.40625q0 -0.296875 0.203125 -0.515625q0.203125 -0.234375 0.53125 -0.234375zm-7.828125 17.578125q2.078125 0 3.71875 -1.09375q1.65625 -1.109375 2.578125 -3.03125q0.9375 -1.921875 0.9375 -4.34375q0 -2.3125 -0.9375 -4.203125q-0.921875 -1.890625 -2.578125 -2.984375q-1.640625 -1.109375 -3.71875 -1.109375q-2.0625 0 -3.703125 1.078125q-1.640625 1.0625 -2.59375 2.9375q-0.953125 1.859375 -0.953125 4.28125q0 2.421875 0.9375 4.34375q0.9375 1.921875 2.578125 3.03125q1.640625 1.09375 3.734375 1.09375zm13.054077 -17.734375l8.671875 0q0.296875 0 0.5 0.234375q0.203125 0.21875 0.203125 0.484375q0 0.296875 -0.203125 0.5q-0.203125 0.203125 -0.5 0.203125l-8.671875 0q-0.25 0 -0.484375 -0.21875q-0.21875 -0.234375 -0.21875 -0.484375q0 -0.296875 0.21875 -0.5q0.234375 -0.21875 0.484375 -0.21875zm3.8125 -5.484375q0.34375 0 0.546875 0.234375q0.203125 0.21875 0.203125 0.515625l0 19.453125q0 1.21875 0.3125 1.796875q0.3125 0.578125 0.796875 0.75q0.5 0.171875 0.9375 0.171875q0.265625 0 0.453125 -0.078125q0.1875 -0.078125 0.453125 -0.078125q0.25 0 0.4375 0.21875q0.1875 0.203125 0.1875 0.453125q0 0.34375 -0.4375 0.59375q-0.421875 0.234375 -1.046875 0.234375q-0.234375 0 -0.8125 -0.015625q-0.578125 -0.015625 -1.234375 -0.328125q-0.640625 -0.328125 -1.09375 -1.171875q-0.453125 -0.84375 -0.453125 -2.484375l0 -19.515625q0 -0.296875 0.21875 -0.515625q0.234375 -0.234375 0.53125 -0.234375zm11.201965 23.515625q0 0.296875 -0.234375 0.53125q-0.21875 0.21875 -0.515625 0.21875q-0.328125 0 -0.546875 -0.21875q-0.203125 -0.234375 -0.203125 -0.53125l0 -17.734375q0 -0.296875 0.21875 -0.515625q0.234375 -0.21875 0.53125 -0.21875q0.34375 0 0.546875 0.21875q0.203125 0.21875 0.203125 0.515625l0 17.734375zm-0.421875 -21.046875q-0.59375 0 -0.953125 -0.328125q-0.359375 -0.34375 -0.359375 -0.875l0 -0.296875q0 -0.515625 0.375 -0.84375q0.375 -0.34375 0.96875 -0.34375q0.53125 0 0.875 0.34375q0.359375 0.328125 0.359375 0.84375l0 0.296875q0 0.53125 -0.359375 0.875q-0.34375 0.328125 -0.90625 0.328125zm23.705261 12.390625q0 2.765625 -1.1875 4.984375q-1.1875 2.21875 -3.265625 3.515625q-2.078125 1.28125 -4.71875 1.28125q-2.609375 0 -4.703125 -1.28125q-2.09375 -1.296875 -3.3125 -3.515625q-1.203125 -2.21875 -1.203125 -4.984375q0 -2.796875 1.203125 -5.015625q1.21875 -2.21875 3.3125 -3.5q2.09375 -1.296875 4.703125 -1.296875q2.640625 0 4.71875 1.296875q2.078125 1.28125 3.265625 3.5q1.1875 2.21875 1.1875 5.015625zm-1.484375 0q0 -2.421875 -1.0 -4.3125q-0.984375 -1.890625 -2.71875 -2.984375q-1.734375 -1.109375 -3.96875 -1.109375q-2.203125 0 -3.96875 1.109375q-1.75 1.09375 -2.765625 2.984375q-1.0 1.890625 -1.0 4.3125q0 2.390625 1.0 4.28125q1.015625 1.875 2.765625 2.984375q1.765625 1.09375 3.96875 1.09375q2.234375 0 3.96875 -1.09375q1.734375 -1.109375 2.71875 -2.984375q1.0 -1.890625 1.0 -4.28125zm14.861328 -9.8125q2.34375 0 3.8125 0.9375q1.484375 0.921875 2.171875 2.53125q0.6875 1.609375 0.6875 3.578125l0 11.421875q0 0.296875 -0.21875 0.53125q-0.21875 0.21875 -0.53125 0.21875q-0.328125 0 -0.53125 -0.21875q-0.203125 -0.234375 -0.203125 -0.53125l0 -11.265625q0 -1.609375 -0.546875 -2.90625q-0.546875 -1.3125 -1.71875 -2.09375q-1.171875 -0.796875 -3.078125 -0.796875q-1.640625 0 -3.21875 0.796875q-1.5625 0.78125 -2.59375 2.09375q-1.015625 1.296875 -1.015625 2.90625l0 11.265625q0 0.296875 -0.234375 0.53125q-0.21875 0.21875 -0.515625 0.21875q-0.328125 0 -0.546875 -0.21875q-0.203125 -0.234375 -0.203125 -0.53125l0 -17.125q0 -0.296875 0.21875 -0.515625q0.234375 -0.234375 0.53125 -0.234375q0.34375 0 0.546875 0.234375q0.203125 0.21875 0.203125 0.515625l0 3.65625l-0.9375 1.78125q0 -1.34375 0.703125 -2.5625q0.71875 -1.234375 1.875 -2.1875q1.15625 -0.953125 2.546875 -1.484375q1.40625 -0.546875 2.796875 -0.546875zm11.820496 16.234375q-0.25 -0.453125 -0.234375 -0.734375q0.015625 -0.28125 0.28125 -0.46875q0.1875 -0.1875 0.5 -0.15625q0.3125 0.015625 0.546875 0.28125q0.96875 1.375 2.46875 2.234375q1.515625 0.859375 3.578125 0.859375q1.234375 0 2.359375 -0.40625q1.140625 -0.421875 1.859375 -1.234375q0.734375 -0.828125 0.734375 -2.015625q0 -1.265625 -0.703125 -2.03125q-0.703125 -0.765625 -1.828125 -1.21875q-1.125 -0.453125 -2.359375 -0.75q-1.296875 -0.328125 -2.484375 -0.75q-1.171875 -0.4375 -2.0625 -1.09375q-0.890625 -0.65625 -1.421875 -1.546875q-0.515625 -0.90625 -0.515625 -2.125q0 -1.46875 0.78125 -2.625q0.78125 -1.15625 2.203125 -1.796875q1.421875 -0.65625 3.28125 -0.65625q0.890625 0 1.890625 0.21875q1.015625 0.21875 2.015625 0.765625q1.015625 0.546875 1.875 1.515625q0.3125 0.21875 0.28125 0.546875q-0.015625 0.3125 -0.28125 0.5625q-0.21875 0.15625 -0.484375 0.15625q-0.25 0 -0.4375 -0.21875q-0.96875 -1.09375 -2.265625 -1.609375q-1.28125 -0.53125 -2.734375 -0.53125q-1.234375 0 -2.296875 0.421875q-1.0625 0.40625 -1.734375 1.21875q-0.671875 0.796875 -0.671875 2.03125q0.0625 1.15625 0.796875 1.90625q0.734375 0.734375 1.9375 1.21875q1.21875 0.484375 2.75 0.90625q1.234375 0.296875 2.296875 0.6875q1.0625 0.390625 1.859375 0.984375q0.796875 0.59375 1.265625 1.5q0.46875 0.890625 0.46875 2.234375q0 1.5625 -0.84375 2.703125q-0.828125 1.140625 -2.3125 1.765625q-1.46875 0.609375 -3.375 0.609375q-1.9375 0 -3.734375 -0.78125q-1.78125 -0.78125 -3.25 -2.578125z" fill-rule="nonzero"/><path fill="#000000" fill-opacity="0.0" d="m363.5394 226.44545l0 0c0 -64.00415 51.88562 -115.889755 115.88977 -115.889755l0 0c30.73587 0 60.21292 12.209778 81.94644 33.94333c21.73352 21.733536 33.9433 51.210556 33.9433 81.94643l0 0c0 64.004166 -51.88556 115.889755 -115.88974 115.889755l0 0c-64.00415 0 -115.88977 -51.88559 -115.88977 -115.889755z" fill-rule="evenodd"/><path stroke="#26c6da" stroke-width="4.0" stroke-linejoin="round" stroke-linecap="butt" d="m363.5394 226.44545l0 0c0 -64.00415 51.88562 -115.889755 115.88977 -115.889755l0 0c30.73587 0 60.21292 12.209778 81.94644 33.94333c21.73352 21.733536 33.9433 51.210556 33.9433 81.94643l0 0c0 64.004166 -51.88556 115.889755 -115.88974 115.889755l0 0c-64.00415 0 -115.88977 -51.88559 -115.88977 -115.889755z" fill-rule="evenodd"/><path fill="#595959" d="m446.63748 218.14046q3.28125 0 6.015625 1.796875q2.734375 1.78125 3.71875 5.59375l-0.75 0.53125l0.28125 -1.109375q0.765625 -1.9375 2.671875 -3.453125q1.90625 -1.53125 4.28125 -2.4375q2.375 -0.921875 4.609375 -0.921875q3.515625 0 5.796875 1.53125q2.296875 1.515625 3.375 4.078125q1.09375 2.546875 1.09375 5.78125l0 17.0625q0 0.46875 -0.328125 0.828125q-0.3125 0.34375 -0.84375 0.34375q-0.53125 0 -0.859375 -0.34375q-0.3125 -0.359375 -0.3125 -0.828125l0 -16.828125q0 -2.59375 -0.859375 -4.734375q-0.84375 -2.140625 -2.640625 -3.390625q-1.78125 -1.265625 -4.65625 -1.265625q-2.53125 0 -4.9375 1.265625q-2.390625 1.25 -3.953125 3.390625q-1.546875 2.140625 -1.546875 4.734375l0 16.828125q0 0.46875 -0.328125 0.828125q-0.328125 0.34375 -0.84375 0.34375q-0.53125 0 -0.859375 -0.34375q-0.328125 -0.359375 -0.328125 -0.828125l0 -17.125q0 -2.53125 -0.796875 -4.578125q-0.78125 -2.046875 -2.484375 -3.28125q-1.703125 -1.234375 -4.515625 -1.234375q-2.453125 0 -4.78125 1.234375q-2.3125 1.234375 -3.84375 3.28125q-1.515625 2.046875 -1.515625 4.578125l0 17.125q0 0.46875 -0.359375 0.828125q-0.34375 0.34375 -0.8125 0.34375q-0.53125 0 -0.859375 -0.34375q-0.3125 -0.359375 -0.3125 -0.828125l0 -26.921875q0 -0.46875 0.34375 -0.8125q0.359375 -0.359375 0.828125 -0.359375q0.515625 0 0.84375 0.359375q0.328125 0.34375 0.328125 0.8125l0 6.390625l-1.765625 2.984375q0 -2.046875 1.0 -3.984375q1.0 -1.9375 2.671875 -3.484375q1.671875 -1.5625 3.8125 -2.5q2.140625 -0.9375 4.421875 -0.9375zm43.177887 28.453125q0 0.46875 -0.359375 0.828125q-0.34375 0.34375 -0.8125 0.34375q-0.53125 0 -0.859375 -0.34375q-0.3125 -0.359375 -0.3125 -0.828125l0 -27.859375q0 -0.46875 0.34375 -0.8125q0.359375 -0.359375 0.828125 -0.359375q0.515625 0 0.84375 0.359375q0.328125 0.34375 0.328125 0.8125l0 27.859375zm-1.234375 -33.078125q-0.9375 0 -1.5 -0.53125q-0.546875 -0.53125 -0.546875 -1.34375l0 -0.46875q0 -0.828125 0.578125 -1.359375q0.59375 -0.53125 1.53125 -0.53125q0.8125 0 1.375 0.53125q0.5625 0.53125 0.5625 1.359375l0 0.46875q0 0.8125 -0.5625 1.34375q-0.5625 0.53125 -1.4375 0.53125zm34.95819 4.984375q0.53125 0 0.84375 0.359375q0.328125 0.34375 0.328125 0.8125l0 26.921875q0 0.46875 -0.359375 0.828125q-0.34375 0.34375 -0.8125 0.34375q-0.53125 0 -0.859375 -0.34375q-0.3125 -0.359375 -0.3125 -0.828125l0 -8.328125l0.9375 -0.765625q0 1.875 -0.9375 3.8125q-0.9375 1.9375 -2.578125 3.53125q-1.640625 1.578125 -3.875 2.546875q-2.234375 0.96875 -4.8125305 0.96875q-3.921875 0 -7.015625 -2.046875q-3.078125 -2.0625 -4.84375 -5.578125q-1.75 -3.53125 -1.75 -7.921875q0 -4.46875 1.78125 -7.890625q1.796875 -3.4375 4.875 -5.390625q3.078125 -1.96875 6.953125 -1.96875q2.5312805 0 4.7500305 0.90625q2.234375 0.90625 3.90625 2.546875q1.671875 1.640625 2.609375 3.84375q0.9375 2.203125 0.9375 4.78125l-0.9375 -1.46875l0 -8.5q0 -0.46875 0.3125 -0.8125q0.328125 -0.359375 0.859375 -0.359375zm-12.3125305 27.625q3.2812805 0 5.8594055 -1.734375q2.578125 -1.734375 4.046875 -4.75q1.46875 -3.015625 1.46875 -6.828125q0 -3.640625 -1.46875 -6.59375q-1.46875 -2.96875 -4.046875 -4.703125q-2.578125 -1.734375 -5.8594055 -1.734375q-3.234375 0 -5.8125 1.671875q-2.578125 1.671875 -4.078125 4.609375q-1.5 2.9375 -1.5 6.75q0 3.8125 1.46875 6.828125q1.46875 3.015625 4.046875 4.75q2.578125 1.734375 5.875 1.734375z" fill-rule="nonzero"/></g></svg>